<svg width="25" height="23" viewBox="0 0 25 23" fill="none" xmlns="http://www.w3.org/2000/svg">
<path d="M22.9219 13.0768L24.9737 4.0499C25.1218 3.39814 24.6264 2.7775 23.9579 2.7775H6.91007L6.51224 0.832816C6.41311 0.348099 5.98655 0 5.49171 0H1.04167C0.466363 0 0 0.466316 0 1.04156V1.73594C0 2.31118 0.466363 2.7775 1.04167 2.7775H4.07478L7.12374 17.682C6.39432 18.1015 5.90278 18.888 5.90278 19.7897C5.90278 21.1319 6.99097 22.22 8.33333 22.22C9.6757 22.22 10.7639 21.1319 10.7639 19.7897C10.7639 19.1095 10.4841 18.4949 10.0337 18.0537H19.1329C18.6826 18.4949 18.4028 19.1095 18.4028 19.7897C18.4028 21.1319 19.491 22.22 20.8333 22.22C22.1757 22.22 23.2639 21.1319 23.2639 19.7897C23.2639 18.8275 22.7045 17.9959 21.8933 17.6022L22.1327 16.5486C22.2809 15.8969 21.7854 15.2762 21.117 15.2762H9.46689L9.18281 13.8875H21.9061C22.3925 13.8875 22.8141 13.551 22.9219 13.0768Z" fill="#59815B" fill-opacity="0.8"/>
</svg>
