<svg width="25" height="25" viewBox="0 0 25 25" fill="none" xmlns="http://www.w3.org/2000/svg">
<path d="M12.1094 0C5.41992 0 0 5.4202 0 12.11C0 18.7998 5.41992 24.22 12.1094 24.22C18.7988 24.22 24.2188 18.7998 24.2188 12.11C24.2188 5.4202 18.7988 0 12.1094 0ZM12.1094 4.68774C14.4824 4.68774 16.4062 6.61167 16.4062 8.98484C16.4062 11.358 14.4824 13.2819 12.1094 13.2819C9.73633 13.2819 7.8125 11.358 7.8125 8.98484C7.8125 6.61167 9.73633 4.68774 12.1094 4.68774ZM12.1094 21.4855C9.24316 21.4855 6.6748 20.1866 4.95605 18.1552C5.87402 16.4266 7.6709 15.2352 9.76562 15.2352C9.88281 15.2352 10 15.2547 10.1123 15.2889C10.7471 15.494 11.4111 15.6258 12.1094 15.6258C12.8076 15.6258 13.4766 15.494 14.1064 15.2889C14.2188 15.2547 14.3359 15.2352 14.4531 15.2352C16.5479 15.2352 18.3447 16.4266 19.2627 18.1552C17.5439 20.1866 14.9756 21.4855 12.1094 21.4855Z" fill="#59815B" fill-opacity="0.8"/>
</svg>
