<svg width="37" height="44" viewBox="0 0 37 44" fill="none" xmlns="http://www.w3.org/2000/svg">
<path d="M1 43V1H36V43L19 33L1 43Z" fill="#B7121C" stroke="#B7121C"/>
<path d="M5.42643 18.7627V17.3345H9.0065V18.7627H5.42643ZM13.3181 22.1333C12.7553 22.1333 12.239 22.0296 11.7693 21.8223C11.3038 21.6107 10.9335 21.3102 10.6584 20.9209C10.3834 20.5316 10.2522 20.0661 10.2649 19.5244L10.2776 19.4927L12.0549 19.4038C12.0549 19.8143 12.1713 20.1359 12.404 20.3687C12.6368 20.5972 12.9415 20.7114 13.3181 20.7114C13.7497 20.7114 14.0692 20.557 14.2766 20.248C14.4839 19.9391 14.5876 19.5392 14.5876 19.0483C14.5876 18.5151 14.4776 18.0877 14.2575 17.7661C14.0375 17.4445 13.7095 17.2837 13.2737 17.2837C12.9224 17.2837 12.6516 17.3493 12.4612 17.4805C12.275 17.6117 12.1417 17.7894 12.0613 18.0137L10.4236 17.9058L10.9568 12.7578H16.2761V14.8652H15.1335L14.9685 14.2432H12.4802L12.2199 16.376C12.3934 16.249 12.6008 16.1453 12.842 16.0649C13.0832 15.9803 13.3498 15.9359 13.6418 15.9316C14.5305 15.9189 15.2182 16.1877 15.7048 16.7378C16.1915 17.2879 16.4348 18.0539 16.4348 19.0356C16.4348 19.6281 16.3142 20.1592 16.073 20.6289C15.836 21.0944 15.4848 21.4626 15.0193 21.7334C14.558 22 13.9909 22.1333 13.3181 22.1333ZM20.5877 22.1333C19.6228 22.1333 18.859 21.818 18.2962 21.1875C17.7333 20.5527 17.4519 19.6239 17.4519 18.4009V16.3633C17.4519 15.1445 17.7312 14.2178 18.2898 13.583C18.8527 12.944 19.6144 12.6245 20.575 12.6245C21.5314 12.6245 22.291 12.944 22.8538 13.583C23.4208 14.2178 23.7044 15.1445 23.7044 16.3633V18.4009C23.7044 19.6239 23.423 20.5527 22.8601 21.1875C22.3015 21.818 21.5441 22.1333 20.5877 22.1333ZM20.5877 20.7114C21.0024 20.7114 21.3177 20.5422 21.5335 20.2036C21.7493 19.8651 21.8572 19.3234 21.8572 18.5786V16.1729C21.8572 15.4408 21.7472 14.9054 21.5271 14.5669C21.3071 14.2241 20.9897 14.0527 20.575 14.0527C20.156 14.0527 19.8387 14.222 19.6228 14.5605C19.407 14.8991 19.2991 15.4365 19.2991 16.1729V18.5786C19.2991 19.3234 19.407 19.8651 19.6228 20.2036C19.8429 20.5422 20.1645 20.7114 20.5877 20.7114ZM26.6576 16.9219C26.0228 16.9219 25.5277 16.742 25.1722 16.3823C24.8167 16.0226 24.639 15.5698 24.639 15.0239V14.5352C24.639 13.9893 24.8146 13.5343 25.1659 13.1704C25.5213 12.8065 26.0143 12.6245 26.6449 12.6245C27.2839 12.6245 27.779 12.8065 28.1302 13.1704C28.4815 13.5301 28.6571 13.985 28.6571 14.5352V15.0239C28.6571 15.5698 28.4815 16.0226 28.1302 16.3823C27.779 16.742 27.2881 16.9219 26.6576 16.9219ZM27.0384 21.3081L26.1371 20.832L30.6502 13.6084L31.5516 14.0845L27.0384 21.3081ZM26.6576 15.8936C26.903 15.8936 27.0934 15.811 27.2288 15.646C27.3643 15.4767 27.432 15.2694 27.432 15.0239V14.5352C27.432 14.2897 27.3621 14.0824 27.2225 13.9131C27.0871 13.7396 26.8945 13.6528 26.6449 13.6528C26.3952 13.6528 26.2026 13.7396 26.0672 13.9131C25.936 14.0824 25.8704 14.2897 25.8704 14.5352V15.0239C25.8704 15.2694 25.9382 15.4767 26.0736 15.646C26.209 15.811 26.4037 15.8936 26.6576 15.8936ZM31.0819 22.127C30.4471 22.127 29.9499 21.9471 29.5902 21.5874C29.2347 21.2235 29.057 20.7686 29.057 20.2227V19.7339C29.057 19.1922 29.2347 18.7394 29.5902 18.3755C29.9456 18.0116 30.4386 17.8296 31.0692 17.8296C31.7039 17.8296 32.1969 18.0116 32.5482 18.3755C32.9037 18.7352 33.0814 19.188 33.0814 19.7339V20.2227C33.0814 20.7728 32.9058 21.2277 32.5545 21.5874C32.2033 21.9471 31.7124 22.127 31.0819 22.127ZM31.0819 21.0986C31.3569 21.0986 31.5537 21.0203 31.6722 20.8638C31.7907 20.703 31.8499 20.4893 31.8499 20.2227V19.7339C31.8499 19.4927 31.7822 19.2874 31.6468 19.1182C31.5114 18.9447 31.3189 18.8579 31.0692 18.8579C30.8153 18.8579 30.6206 18.9447 30.4852 19.1182C30.354 19.2874 30.2884 19.4927 30.2884 19.7339V20.2227C30.2884 20.4639 30.3604 20.6712 30.5042 20.8447C30.6524 21.014 30.8449 21.0986 31.0819 21.0986Z" fill="white"/>
</svg>
