<svg width="37" height="44" viewBox="0 0 37 44" fill="none" xmlns="http://www.w3.org/2000/svg">
<path d="M1 43V1H36V43L19 33L1 43Z" fill="#B7121C" stroke="#B7121C"/>
<path d="M5.51676 18.7627V17.3345H9.09684V18.7627H5.51676ZM10.3425 22V20.8892L11.904 20.6987V14.4399H10.3235V13.3799L13.7512 12.7578V20.6987L15.3127 20.8892V22H10.3425ZM19.4973 22.1333C18.5325 22.1333 17.7687 21.818 17.2058 21.1875C16.643 20.5527 16.3616 19.6239 16.3616 18.4009V16.3633C16.3616 15.1445 16.6409 14.2178 17.1995 13.583C17.7623 12.944 18.524 12.6245 19.4846 12.6245C20.441 12.6245 21.2006 12.944 21.7635 13.583C22.3305 14.2178 22.614 15.1445 22.614 16.3633V18.4009C22.614 19.6239 22.3326 20.5527 21.7698 21.1875C21.2112 21.818 20.4537 22.1333 19.4973 22.1333ZM19.4973 20.7114C19.9121 20.7114 20.2273 20.5422 20.4431 20.2036C20.659 19.8651 20.7669 19.3234 20.7669 18.5786V16.1729C20.7669 15.4408 20.6568 14.9054 20.4368 14.5669C20.2167 14.2241 19.8994 14.0527 19.4846 14.0527C19.0657 14.0527 18.7483 14.222 18.5325 14.5605C18.3167 14.8991 18.2088 15.4365 18.2088 16.1729V18.5786C18.2088 19.3234 18.3167 19.8651 18.5325 20.2036C18.7526 20.5422 19.0742 20.7114 19.4973 20.7114ZM25.5672 16.9219C24.9325 16.9219 24.4373 16.742 24.0819 16.3823C23.7264 16.0226 23.5487 15.5698 23.5487 15.0239V14.5352C23.5487 13.9893 23.7243 13.5343 24.0755 13.1704C24.431 12.8065 24.924 12.6245 25.5545 12.6245C26.1935 12.6245 26.6886 12.8065 27.0399 13.1704C27.3911 13.5301 27.5667 13.985 27.5667 14.5352V15.0239C27.5667 15.5698 27.3911 16.0226 27.0399 16.3823C26.6886 16.742 26.1978 16.9219 25.5672 16.9219ZM25.9481 21.3081L25.0467 20.832L29.5599 13.6084L30.4613 14.0845L25.9481 21.3081ZM25.5672 15.8936C25.8127 15.8936 26.0031 15.811 26.1385 15.646C26.2739 15.4767 26.3416 15.2694 26.3416 15.0239V14.5352C26.3416 14.2897 26.2718 14.0824 26.1322 13.9131C25.9968 13.7396 25.8042 13.6528 25.5545 13.6528C25.3049 13.6528 25.1123 13.7396 24.9769 13.9131C24.8457 14.0824 24.7801 14.2897 24.7801 14.5352V15.0239C24.7801 15.2694 24.8478 15.4767 24.9832 15.646C25.1187 15.811 25.3133 15.8936 25.5672 15.8936ZM29.9915 22.127C29.3568 22.127 28.8595 21.9471 28.4998 21.5874C28.1444 21.2235 27.9666 20.7686 27.9666 20.2227V19.7339C27.9666 19.1922 28.1444 18.7394 28.4998 18.3755C28.8553 18.0116 29.3483 17.8296 29.9788 17.8296C30.6136 17.8296 31.1066 18.0116 31.4579 18.3755C31.8133 18.7352 31.9911 19.188 31.9911 19.7339V20.2227C31.9911 20.7728 31.8154 21.2277 31.4642 21.5874C31.113 21.9471 30.6221 22.127 29.9915 22.127ZM29.9915 21.0986C30.2666 21.0986 30.4634 21.0203 30.5819 20.8638C30.7004 20.703 30.7596 20.4893 30.7596 20.2227V19.7339C30.7596 19.4927 30.6919 19.2874 30.5565 19.1182C30.4211 18.9447 30.2285 18.8579 29.9788 18.8579C29.7249 18.8579 29.5303 18.9447 29.3949 19.1182C29.2637 19.2874 29.1981 19.4927 29.1981 19.7339V20.2227C29.1981 20.4639 29.27 20.6712 29.4139 20.8447C29.562 21.014 29.7546 21.0986 29.9915 21.0986Z" fill="white"/>
</svg>
