<svg width="37" height="44" viewBox="0 0 37 44" fill="none" xmlns="http://www.w3.org/2000/svg">
<path d="M1 43V1H36V43L19 33L1 43Z" fill="#B7121C" stroke="#B7121C"/>
<path d="M4.78678 18.7627V17.3345H8.36686V18.7627H4.78678ZM9.68869 22V20.7876L12.6848 17.5693C13.1376 17.0573 13.4507 16.6383 13.6242 16.3125C13.7977 15.9867 13.8845 15.6672 13.8845 15.354C13.8845 14.9943 13.7808 14.6896 13.5735 14.4399C13.3661 14.1903 13.0656 14.0654 12.6721 14.0654C12.2447 14.0654 11.921 14.2051 11.7009 14.4844C11.4808 14.7594 11.3708 15.1403 11.3708 15.627H9.56809L9.55539 15.5889C9.5427 15.0345 9.66119 14.533 9.91086 14.0845C10.1648 13.6359 10.5287 13.2804 11.0027 13.0181C11.4766 12.7557 12.0394 12.6245 12.6911 12.6245C13.3217 12.6245 13.8654 12.7388 14.3225 12.9673C14.7795 13.1958 15.1307 13.5132 15.3762 13.9194C15.6216 14.3215 15.7444 14.7891 15.7444 15.3223C15.7444 15.6862 15.6788 16.0311 15.5476 16.3569C15.4164 16.6828 15.2112 17.0256 14.9319 17.3853C14.6526 17.745 14.2929 18.1576 13.8528 18.623L12.0564 20.5527L12.0691 20.5845H14.4621L14.5573 19.7021H15.9919V22H9.68869ZM20.2273 22.1333C19.2625 22.1333 18.4986 21.818 17.9358 21.1875C17.373 20.5527 17.0916 19.6239 17.0916 18.4009V16.3633C17.0916 15.1445 17.3709 14.2178 17.9295 13.583C18.4923 12.944 19.254 12.6245 20.2146 12.6245C21.171 12.6245 21.9306 12.944 22.4934 13.583C23.0605 14.2178 23.344 15.1445 23.344 16.3633V18.4009C23.344 19.6239 23.0626 20.5527 22.4998 21.1875C21.9412 21.818 21.1837 22.1333 20.2273 22.1333ZM20.2273 20.7114C20.642 20.7114 20.9573 20.5422 21.1731 20.2036C21.3889 19.8651 21.4969 19.3234 21.4969 18.5786V16.1729C21.4969 15.4408 21.3868 14.9054 21.1668 14.5669C20.9467 14.2241 20.6293 14.0527 20.2146 14.0527C19.7957 14.0527 19.4783 14.222 19.2625 14.5605C19.0467 14.8991 18.9388 15.4365 18.9388 16.1729V18.5786C18.9388 19.3234 19.0467 19.8651 19.2625 20.2036C19.4825 20.5422 19.8041 20.7114 20.2273 20.7114ZM26.2972 16.9219C25.6624 16.9219 25.1673 16.742 24.8119 16.3823C24.4564 16.0226 24.2787 15.5698 24.2787 15.0239V14.5352C24.2787 13.9893 24.4543 13.5343 24.8055 13.1704C25.161 12.8065 25.654 12.6245 26.2845 12.6245C26.9235 12.6245 27.4186 12.8065 27.7699 13.1704C28.1211 13.5301 28.2967 13.985 28.2967 14.5352V15.0239C28.2967 15.5698 28.1211 16.0226 27.7699 16.3823C27.4186 16.742 26.9277 16.9219 26.2972 16.9219ZM26.6781 21.3081L25.7767 20.832L30.2899 13.6084L31.1912 14.0845L26.6781 21.3081ZM26.2972 15.8936C26.5426 15.8936 26.7331 15.811 26.8685 15.646C27.0039 15.4767 27.0716 15.2694 27.0716 15.0239V14.5352C27.0716 14.2897 27.0018 14.0824 26.8621 13.9131C26.7267 13.7396 26.5342 13.6528 26.2845 13.6528C26.0348 13.6528 25.8423 13.7396 25.7069 13.9131C25.5757 14.0824 25.5101 14.2897 25.5101 14.5352V15.0239C25.5101 15.2694 25.5778 15.4767 25.7132 15.646C25.8486 15.811 26.0433 15.8936 26.2972 15.8936ZM30.7215 22.127C30.0868 22.127 29.5895 21.9471 29.2298 21.5874C28.8744 21.2235 28.6966 20.7686 28.6966 20.2227V19.7339C28.6966 19.1922 28.8744 18.7394 29.2298 18.3755C29.5853 18.0116 30.0783 17.8296 30.7088 17.8296C31.3436 17.8296 31.8366 18.0116 32.1878 18.3755C32.5433 18.7352 32.721 19.188 32.721 19.7339V20.2227C32.721 20.7728 32.5454 21.2277 32.1942 21.5874C31.8429 21.9471 31.3521 22.127 30.7215 22.127ZM30.7215 21.0986C30.9966 21.0986 31.1934 21.0203 31.3119 20.8638C31.4303 20.703 31.4896 20.4893 31.4896 20.2227V19.7339C31.4896 19.4927 31.4219 19.2874 31.2865 19.1182C31.151 18.9447 30.9585 18.8579 30.7088 18.8579C30.4549 18.8579 30.2603 18.9447 30.1248 19.1182C29.9937 19.2874 29.9281 19.4927 29.9281 19.7339V20.2227C29.9281 20.4639 30 20.6712 30.1439 20.8447C30.292 21.014 30.4845 21.0986 30.7215 21.0986Z" fill="white"/>
</svg>
