<svg width="37" height="44" viewBox="0 0 37 44" fill="none" xmlns="http://www.w3.org/2000/svg">
<path d="M1 43V1H36V43L19 33L1 43Z" fill="#B7121C" stroke="#B7121C"/>
<path d="M5.53434 18.7627V17.3345H9.11441V18.7627H5.53434ZM10.4363 22V20.7876L13.4323 17.5693C13.8851 17.0573 14.1983 16.6383 14.3718 16.3125C14.5453 15.9867 14.6321 15.6672 14.6321 15.354C14.6321 14.9943 14.5284 14.6896 14.321 14.4399C14.1137 14.1903 13.8132 14.0654 13.4196 14.0654C12.9922 14.0654 12.6685 14.2051 12.4485 14.4844C12.2284 14.7594 12.1184 15.1403 12.1184 15.627H10.3156L10.3029 15.5889C10.2903 15.0345 10.4087 14.533 10.6584 14.0845C10.9123 13.6359 11.2763 13.2804 11.7502 13.0181C12.2242 12.7557 12.787 12.6245 13.4387 12.6245C14.0692 12.6245 14.613 12.7388 15.07 12.9673C15.5271 13.1958 15.8783 13.5132 16.1238 13.9194C16.3692 14.3215 16.4919 14.7891 16.4919 15.3223C16.4919 15.6862 16.4263 16.0311 16.2951 16.3569C16.164 16.6828 15.9587 17.0256 15.6794 17.3853C15.4001 17.745 15.0404 18.1576 14.6003 18.623L12.8039 20.5527L12.8166 20.5845H15.2097L15.3049 19.7021H16.7395V22H10.4363ZM20.7019 22.1333C20.1391 22.1333 19.6228 22.0296 19.1531 21.8223C18.6876 21.6107 18.3173 21.3102 18.0423 20.9209C17.7672 20.5316 17.636 20.0661 17.6487 19.5244L17.6614 19.4927L19.4388 19.4038C19.4388 19.8143 19.5551 20.1359 19.7879 20.3687C20.0206 20.5972 20.3253 20.7114 20.7019 20.7114C21.1336 20.7114 21.4531 20.557 21.6604 20.248C21.8678 19.9391 21.9715 19.5392 21.9715 19.0483C21.9715 18.5151 21.8614 18.0877 21.6414 17.7661C21.4213 17.4445 21.0934 17.2837 20.6575 17.2837C20.3063 17.2837 20.0354 17.3493 19.845 17.4805C19.6588 17.6117 19.5255 17.7894 19.4451 18.0137L17.8074 17.9058L18.3406 12.7578H23.6599V14.8652H22.5174L22.3523 14.2432H19.864L19.6038 16.376C19.7773 16.249 19.9846 16.1453 20.2259 16.0649C20.4671 15.9803 20.7337 15.9359 21.0257 15.9316C21.9143 15.9189 22.602 16.1877 23.0887 16.7378C23.5753 17.2879 23.8186 18.0539 23.8186 19.0356C23.8186 19.6281 23.698 20.1592 23.4568 20.6289C23.2198 21.0944 22.8686 21.4626 22.4031 21.7334C21.9418 22 21.3748 22.1333 20.7019 22.1333ZM26.5496 16.9219C25.9149 16.9219 25.4198 16.742 25.0643 16.3823C24.7088 16.0226 24.5311 15.5698 24.5311 15.0239V14.5352C24.5311 13.9893 24.7067 13.5343 25.0579 13.1704C25.4134 12.8065 25.9064 12.6245 26.537 12.6245C27.176 12.6245 27.6711 12.8065 28.0223 13.1704C28.3735 13.5301 28.5492 13.985 28.5492 14.5352V15.0239C28.5492 15.5698 28.3735 16.0226 28.0223 16.3823C27.6711 16.742 27.1802 16.9219 26.5496 16.9219ZM26.9305 21.3081L26.0291 20.832L30.5423 13.6084L31.4437 14.0845L26.9305 21.3081ZM26.5496 15.8936C26.7951 15.8936 26.9855 15.811 27.1209 15.646C27.2564 15.4767 27.3241 15.2694 27.3241 15.0239V14.5352C27.3241 14.2897 27.2542 14.0824 27.1146 13.9131C26.9792 13.7396 26.7866 13.6528 26.537 13.6528C26.2873 13.6528 26.0947 13.7396 25.9593 13.9131C25.8281 14.0824 25.7625 14.2897 25.7625 14.5352V15.0239C25.7625 15.2694 25.8302 15.4767 25.9657 15.646C26.1011 15.811 26.2957 15.8936 26.5496 15.8936ZM30.974 22.127C30.3392 22.127 29.842 21.9471 29.4823 21.5874C29.1268 21.2235 28.9491 20.7686 28.9491 20.2227V19.7339C28.9491 19.1922 29.1268 18.7394 29.4823 18.3755C29.8377 18.0116 30.3307 17.8296 30.9613 17.8296C31.596 17.8296 32.089 18.0116 32.4403 18.3755C32.7957 18.7352 32.9735 19.188 32.9735 19.7339V20.2227C32.9735 20.7728 32.7979 21.2277 32.4466 21.5874C32.0954 21.9471 31.6045 22.127 30.974 22.127ZM30.974 21.0986C31.249 21.0986 31.4458 21.0203 31.5643 20.8638C31.6828 20.703 31.742 20.4893 31.742 20.2227V19.7339C31.742 19.4927 31.6743 19.2874 31.5389 19.1182C31.4035 18.9447 31.2109 18.8579 30.9613 18.8579C30.7074 18.8579 30.5127 18.9447 30.3773 19.1182C30.2461 19.2874 30.1805 19.4927 30.1805 19.7339V20.2227C30.1805 20.4639 30.2524 20.6712 30.3963 20.8447C30.5444 21.014 30.737 21.0986 30.974 21.0986Z" fill="white"/>
</svg>
